<?xml version="1.0" standalone="no"?>
<!DOCTYPE svg PUBLIC "-//W3C//DTD SVG 20010904//EN"
 "http://www.w3.org/TR/2001/REC-SVG-20010904/DTD/svg10.dtd">
<svg version="1.0" xmlns="http://www.w3.org/2000/svg"
 width="6912.000000pt" height="3456.000000pt" viewBox="0 0 6912.000000 3456.000000"
 preserveAspectRatio="xMidYMid meet">

<g transform="translate(0.000000,3456.000000) scale(0.100000,-0.100000)"
fill="#000000" stroke="none">
<path d="M16110 26310 l0 -3530 705 0 705 0 0 3530 0 3530 -705 0 -705 0 0
-3530z"/>
<path d="M42172 26313 l3 -3528 703 -3 702 -2 0 1410 0 1410 1055 0 1055 0 2
-1407 3 -1408 705 0 705 0 3 2895 c2 1592 0 3180 -4 3528 l-6 632 -704 0 -704
0 0 -1410 0 -1410 -1055 0 -1055 0 0 1410 0 1410 -705 0 -705 0 2 -3527z"/>
<path d="M28240 29130 l0 -700 873 0 874 0 6 -1087 c4 -599 7 -1870 7 -2826
l0 -1737 703 2 702 3 3 2823 2 2822 875 0 875 0 0 700 0 700 -2460 0 -2460 0
0 -700z"/>
<path d="M19138 25162 c-3 -428 -3 -1114 0 -1525 l5 -747 298 0 299 0 2 806 3
805 74 -83 c41 -46 380 -424 755 -840 l681 -758 77 0 78 0 0 1530 0 1530 -300
0 -300 0 -1 -502 c-1 -277 -5 -654 -8 -840 l-6 -336 -135 157 c-74 87 -411
478 -749 869 l-613 712 -78 0 -77 0 -5 -778z"/>
<path d="M25220 25911 c-211 -38 -375 -95 -528 -185 -121 -72 -190 -126 -289
-227 -171 -175 -275 -345 -353 -577 -66 -199 -89 -377 -79 -614 19 -414 169
-770 438 -1038 311 -310 738 -456 1228 -421 411 30 717 163 978 425 374 375
523 928 399 1486 -135 608 -574 1035 -1174 1142 -168 29 -477 34 -620 9z m546
-629 c302 -82 522 -308 604 -617 138 -526 -127 -1042 -600 -1166 -105 -27
-337 -38 -433 -20 -197 38 -343 115 -472 252 -76 80 -94 106 -143 205 -72 144
-102 278 -103 460 -2 459 268 810 691 900 95 20 362 12 456 -14z"/>
<path d="M36040 25914 c-206 -19 -427 -76 -573 -149 -278 -139 -503 -364 -642
-645 -189 -379 -217 -859 -74 -1267 182 -516 578 -851 1124 -949 124 -22 378
-30 490 -15 201 27 475 98 475 124 -1 39 -78 598 -82 603 -4 3 -19 -1 -35 -9
-92 -47 -269 -92 -424 -108 -419 -41 -753 135 -915 485 -88 192 -112 460 -59
669 64 254 228 465 439 567 116 56 181 74 319 91 172 20 365 -11 534 -85 70
-31 79 -33 85 -18 6 16 68 547 68 583 0 20 -141 69 -285 98 -98 20 -346 34
-445 25z"/>
<path d="M22080 24385 l0 -1495 300 0 300 0 0 595 0 595 383 2 382 3 3 297 2
298 -382 2 -383 3 -3 298 -2 297 450 0 450 0 0 300 0 300 -750 0 -750 0 0
-1495z"/>
<path d="M32687 25428 c-9 -580 -9 -1868 0 -2245 l6 -293 774 0 773 0 0 300 0
300 -475 0 -475 0 0 295 0 295 390 0 390 0 0 305 0 305 -390 0 -390 0 0 295 0
295 450 0 450 0 0 300 0 300 -748 0 -749 0 -6 -452z"/>
<path d="M37320 24385 l0 -1495 300 0 300 0 0 595 0 595 445 0 445 0 0 -595 0
-595 300 0 300 0 0 1495 0 1495 -300 0 -300 0 0 -595 0 -595 -445 0 -445 0 0
595 0 595 -300 0 -300 0 0 -1495z"/>
<path d="M48167 25683 c-4 -3 -7 -463 -7 -1022 0 -1086 1 -1117 51 -1276 84
-274 260 -477 523 -605 284 -139 635 -153 933 -39 334 128 552 380 636 732 22
92 22 96 22 1152 l0 1060 -295 0 -295 0 -5 -1030 c-4 -740 -9 -1039 -17 -1062
-60 -167 -192 -282 -357 -312 -294 -54 -547 108 -586 375 -6 42 -10 453 -10
1052 l0 982 -293 0 c-162 0 -297 -3 -300 -7z"/>
<path d="M50990 24191 l0 -1501 633 0 c398 0 655 4 693 11 351 62 629 324 716
675 27 113 29 286 4 389 -35 143 -142 314 -243 390 l-40 29 61 61 c147 145
215 351 203 613 -7 157 -33 268 -92 387 -102 210 -276 351 -515 416 -84 23
-91 23 -752 27 l-668 3 0 -1500z m1252 871 c95 -47 150 -145 152 -271 1 -120
-55 -224 -148 -274 -39 -21 -53 -22 -348 -25 l-308 -3 0 301 0 301 303 -3
c293 -3 303 -4 349 -26z m-10 -1198 c140 -47 219 -213 174 -366 -21 -72 -87
-147 -158 -179 -52 -23 -61 -24 -355 -27 l-303 -3 0 295 0 296 298 0 c244 0
307 -3 344 -16z"/>
<path d="M30927 19235 c-274 -33 -523 -108 -772 -233 -640 -319 -1094 -908
-1251 -1622 -26 -117 -28 -144 -32 -415 -3 -233 0 -312 13 -405 57 -391 234
-800 482 -1110 517 -649 1339 -979 2151 -865 507 71 942 284 1308 638 144 139
245 261 347 417 351 540 461 1210 302 1841 -202 799 -811 1434 -1606 1673
-293 88 -638 118 -942 81z m438 -640 c196 -14 415 -78 613 -180 431 -222 751
-623 866 -1084 41 -160 50 -247 50 -441 1 -153 -3 -205 -22 -298 -103 -513
-429 -951 -882 -1186 -176 -91 -312 -138 -501 -173 -133 -24 -449 -24 -579 0
-409 76 -760 285 -1030 612 -312 379 -443 921 -341 1409 30 143 74 266 146
411 267 536 798 892 1395 934 58 5 125 7 150 5 25 -2 85 -6 135 -9z"/>
<path d="M37217 18090 c-466 -74 -805 -391 -919 -860 -8 -36 -13 -113 -12
-220 1 -144 4 -177 28 -265 50 -189 170 -392 306 -518 225 -209 492 -308 794
-294 621 27 1098 582 1027 1196 -55 470 -393 846 -851 947 -81 18 -296 26
-373 14z m337 -683 c90 -45 165 -121 209 -214 30 -64 32 -75 32 -178 0 -103
-2 -114 -32 -177 -75 -159 -227 -259 -395 -259 -136 0 -228 41 -326 145 -86
93 -106 149 -107 296 0 111 1 117 34 183 42 84 115 158 192 197 82 42 120 50
227 46 83 -3 100 -7 166 -39z"/>
<path d="M36662 15811 c-65 -22 -117 -63 -157 -122 -22 -31 -128 -334 -370
-1051 l-340 -1008 -140 1 c-77 1 -178 -4 -224 -11 -173 -24 -380 -91 -502
-164 l-56 -34 -204 251 c-589 725 -1014 1246 -1042 1276 -66 69 -139 102 -235
103 -128 2 -243 -73 -297 -193 -24 -55 -27 -70 -23 -144 3 -67 9 -91 34 -133
16 -28 314 -401 663 -828 l634 -778 -21 -35 c-114 -186 -212 -485 -212 -646 0
-24 -4 -47 -10 -50 -5 -3 -90 -24 -187 -45 -98 -22 -558 -123 -1022 -225 -465
-102 -863 -194 -885 -205 -61 -29 -116 -87 -149 -158 -27 -58 -29 -70 -25
-145 5 -96 33 -160 95 -218 58 -56 117 -82 198 -86 71 -4 269 37 1792 376 150
34 279 61 285 61 7 0 35 -43 61 -95 65 -127 154 -251 260 -359 48 -50 86 -93
85 -96 -3 -6 -1085 -1434 -2204 -2909 -600 -789 -581 -759 -572 -895 8 -116
70 -209 180 -268 36 -19 58 -23 138 -23 86 0 100 3 146 29 29 15 68 44 87 65
19 20 230 295 469 611 571 755 2328 3073 2338 3083 4 5 42 2 83 -7 153 -31
288 -40 420 -27 263 25 476 101 691 245 l96 64 506 -419 c550 -454 557 -459
674 -459 176 0 320 144 320 319 0 74 -20 140 -57 191 -17 22 -246 218 -509
436 -263 217 -490 406 -503 419 l-23 23 40 103 c73 188 102 337 102 530 0 339
-94 618 -301 895 -89 118 -272 290 -367 343 -20 12 -48 -77 336 1056 l326 960
0 95 c1 87 -1 99 -29 149 -78 142 -241 205 -393 152z m-862 -2842 c242 -51
464 -229 567 -455 103 -223 102 -484 -1 -694 -93 -188 -221 -313 -404 -397
-242 -110 -528 -93 -755 45 -144 87 -232 184 -308 337 -70 143 -84 202 -84
370 0 157 17 229 82 360 94 188 262 336 463 407 132 47 299 57 440 27z"/>
<path d="M30462 12299 c-159 -20 -372 -108 -503 -208 -146 -112 -269 -268
-341 -433 -69 -161 -82 -230 -83 -433 0 -198 13 -270 76 -421 73 -176 243
-381 399 -483 327 -212 736 -238 1075 -69 246 124 440 335 536 582 50 129 70
242 70 391 0 211 -46 378 -154 560 -61 104 -215 268 -316 335 -225 151 -493
214 -759 179z m279 -659 c292 -90 401 -444 213 -684 -141 -179 -391 -220 -584
-96 -102 66 -172 176 -192 304 -48 312 258 571 563 476z"/>
<path d="M39420 10769 c-672 -87 -1269 -520 -1559 -1131 -232 -486 -260 -1034
-81 -1542 143 -404 434 -770 804 -1011 319 -208 692 -318 1076 -319 253 0 411
25 644 101 631 205 1126 722 1307 1362 109 387 99 795 -30 1180 -248 742 -901
1272 -1676 1361 -105 12 -391 11 -485 -1z m530 -658 c279 -57 505 -184 711
-398 235 -245 362 -545 376 -888 23 -547 -282 -1048 -781 -1286 -206 -98 -396
-135 -639 -126 -216 8 -337 38 -536 133 -172 82 -319 194 -437 332 -207 242
-316 515 -331 828 -26 551 264 1044 763 1297 107 54 286 106 449 131 69 10
333 -4 425 -23z"/>
<path d="M30995 7021 c-235 -49 -419 -152 -578 -321 -142 -151 -225 -308 -279
-530 -8 -35 -13 -114 -12 -220 1 -145 4 -177 27 -265 90 -334 313 -587 647
-732 262 -113 612 -101 875 30 305 152 516 422 592 761 23 101 22 316 -1 426
-87 412 -390 731 -794 837 -133 35 -346 41 -477 14z m335 -648 c226 -62 361
-316 290 -544 -80 -258 -373 -382 -614 -261 -28 13 -76 49 -108 80 -175 167
-177 444 -4 618 116 115 270 153 436 107z"/>
<path d="M26120 2749 c-193 -23 -377 -112 -518 -251 -370 -362 -368 -943 4
-1299 85 -81 140 -119 246 -169 150 -71 319 -100 474 -81 321 39 582 222 719
504 70 145 88 225 88 397 0 172 -18 255 -87 395 -173 351 -541 552 -926 504z
m80 -250 l0 -181 -87 7 c-106 9 -181 20 -190 28 -11 11 39 116 88 187 54 77
129 136 177 139 9 1 12 -41 12 -180z m129 161 c57 -28 135 -122 182 -217 23
-46 39 -86 37 -89 -7 -6 -107 -21 -200 -30 l-78 -6 0 181 c0 119 4 181 10 181
6 0 28 -9 49 -20z m-374 -75 c-29 -41 -66 -107 -82 -145 -26 -65 -30 -71 -53
-66 -39 7 -134 44 -156 61 -18 14 -18 15 11 40 99 85 185 132 332 184 1 1 -22
-33 -52 -74z m622 25 c84 -39 192 -110 225 -147 17 -19 17 -20 -20 -37 -38
-19 -140 -56 -152 -56 -3 0 -22 35 -40 77 -19 43 -56 106 -82 140 -57 76 -49
78 69 23z m-921 -249 c33 -15 83 -36 112 -46 41 -13 52 -21 48 -33 -16 -52
-37 -178 -48 -283 l-11 -119 -180 0 -180 0 7 69 c11 125 73 284 151 391 20 27
38 50 40 50 2 0 29 -13 61 -29z m1271 -48 c81 -124 127 -252 135 -378 l3 -50
-180 0 -180 0 -7 103 c-4 56 -17 148 -28 204 -12 55 -17 104 -13 108 4 4 37
17 73 29 36 12 79 30 95 40 17 11 35 20 40 20 6 1 34 -34 62 -76z m-844 -55
l117 -11 -2 -181 -3 -181 -180 0 -180 0 3 70 c4 78 26 230 43 289 10 37 12 38
47 32 20 -3 90 -11 155 -18z m511 -55 c22 -106 36 -208 36 -270 l0 -53 -180 0
-180 0 0 184 0 184 88 7 c48 4 105 11 127 15 92 18 90 19 109 -67z m-825 -509
c10 -101 28 -204 47 -270 5 -19 -1 -24 -48 -39 -29 -10 -79 -31 -110 -46 -32
-16 -59 -29 -62 -29 -10 0 -77 103 -109 167 -44 87 -75 186 -83 268 l-7 65
180 0 180 0 12 -116z m431 -64 c0 -180 0 -180 -22 -180 -29 0 -183 -16 -242
-25 l-44 -7 -11 38 c-14 48 -37 196 -45 287 l-7 67 186 0 185 0 0 -180z m426
88 c-6 -83 -41 -287 -51 -297 -2 -2 -39 1 -82 7 -43 6 -111 14 -150 17 l-73 7
0 179 0 179 181 0 182 0 -7 -92z m438 45 c-17 -141 -94 -334 -166 -417 l-34
-39 -45 25 c-24 14 -74 36 -110 48 l-66 22 14 51 c20 77 43 234 43 300 l0 57
185 0 185 0 -6 -47z m-864 -564 l0 -181 -27 6 c-43 11 -109 62 -148 116 -37
50 -105 179 -105 198 0 16 124 36 243 41 l37 1 0 -181z m284 161 c32 -5 61
-11 63 -14 2 -2 -14 -42 -37 -88 -59 -122 -141 -209 -217 -233 l-23 -6 0 182
0 181 78 -6 c42 -4 103 -11 136 -16z m-634 -41 c0 -23 70 -157 109 -209 23
-30 37 -56 32 -58 -5 -2 -43 11 -84 28 -79 33 -169 90 -224 143 -31 29 -32 31
-13 44 25 18 140 62 163 63 9 0 17 -5 17 -11z m905 -33 l69 -32 -64 -52 c-64
-52 -218 -135 -274 -148 l-30 -7 37 45 c38 47 95 148 115 206 11 31 14 33 44
27 18 -4 64 -22 103 -39z"/>
<path d="M29970 2510 c-64 -22 -128 -85 -149 -146 -7 -22 -15 -92 -18 -156
l-5 -118 -65 0 -64 0 3 -107 3 -108 63 -3 62 -3 0 -304 0 -305 125 0 125 0 0
305 0 305 90 0 90 0 0 110 0 110 -90 0 -90 0 0 70 c0 128 37 168 145 157 l55
-6 0 100 c0 98 0 100 -26 109 -44 17 -193 11 -254 -10z"/>
<path d="M34480 1885 l0 -625 125 0 125 0 0 278 c0 266 1 279 20 300 50 53
143 72 194 39 40 -27 46 -72 46 -354 l0 -263 120 0 121 0 -3 338 c-3 324 -4
339 -25 378 -29 54 -93 110 -140 123 -94 26 -211 6 -288 -51 l-40 -29 -3 246
-2 245 -125 0 -125 0 0 -625z"/>
<path d="M35560 1885 l0 -625 125 0 125 0 0 278 c0 266 1 279 20 300 50 53
143 72 194 39 40 -27 46 -72 46 -354 l0 -263 120 0 121 0 -3 338 c-3 324 -4
339 -25 378 -29 54 -93 110 -140 123 -94 26 -211 6 -288 -51 l-40 -29 -3 246
-2 245 -125 0 -125 0 0 -625z"/>
<path d="M37727 1908 c-2 -332 -8 -613 -12 -625 -7 -23 -7 -23 108 -23 l115 0
7 46 7 46 36 -35 c64 -61 96 -72 202 -72 86 0 100 3 148 29 66 37 107 91 135
181 18 59 22 94 22 220 0 170 -20 257 -74 331 -81 110 -273 139 -391 59 l-50
-34 0 240 0 239 -124 0 -124 0 -5 -602z m460 -34 c35 -22 54 -70 60 -149 8
-97 -4 -177 -31 -217 -43 -64 -137 -70 -206 -12 l-30 26 0 152 c0 148 1 153
24 175 51 48 130 59 183 25z"/>
<path d="M28050 2340 l0 -130 130 0 130 0 0 130 0 130 -130 0 -130 0 0 -130z"/>
<path d="M31667 2323 c-4 -3 -7 -57 -7 -120 l0 -113 -60 0 -60 0 0 -110 0
-110 59 0 59 0 4 -207 c5 -223 13 -263 63 -329 14 -18 51 -45 82 -61 53 -25
68 -28 163 -28 58 0 113 3 123 7 15 6 17 22 17 107 l0 99 -68 -1 c-118 -3
-132 24 -132 252 l0 160 108 3 107 3 3 108 3 107 -111 0 -110 0 0 120 0 120
-118 0 c-65 0 -122 -3 -125 -7z"/>
<path d="M29035 2097 c-59 -20 -86 -35 -127 -75 l-37 -35 -7 52 -7 51 -114 0
-115 0 6 -27 c4 -16 9 -202 13 -415 l6 -388 123 0 124 0 0 283 c0 281 0 284
23 304 36 34 67 45 120 45 40 0 54 -5 76 -26 l26 -26 3 -290 3 -290 125 0 126
0 -4 323 c-4 270 -7 329 -21 365 -41 107 -108 154 -226 159 -45 2 -92 -3 -116
-10z"/>
<path d="M30770 2094 c-177 -48 -260 -181 -260 -419 0 -117 14 -184 53 -258
58 -111 156 -166 307 -175 198 -10 332 69 393 236 18 48 21 79 21 197 0 156
-15 216 -73 297 -83 116 -271 168 -441 122z m207 -221 c43 -28 58 -79 58 -198
0 -163 -34 -217 -136 -217 -96 0 -131 48 -137 192 -5 106 7 167 41 206 37 42
121 51 174 17z"/>
<path d="M32670 2094 c-174 -47 -269 -193 -270 -414 0 -209 81 -354 229 -411
71 -27 217 -37 292 -19 64 15 144 53 177 83 38 35 71 100 78 150 l7 47 -116 0
c-116 0 -116 0 -129 -27 -21 -42 -62 -66 -120 -70 -86 -7 -142 35 -162 119
l-6 28 262 2 263 3 3 85 c8 227 -86 379 -263 425 -73 19 -172 18 -245 -1z
m185 -186 c30 -13 60 -60 68 -105 l7 -33 -139 0 -139 0 9 40 c5 23 15 50 22
62 25 42 116 62 172 36z"/>
<path d="M33707 2100 c-100 -25 -166 -80 -214 -177 -37 -75 -38 -78 -41 -213
-3 -78 1 -160 7 -189 37 -175 150 -269 335 -279 231 -12 384 100 386 281 l0
47 -115 0 -115 0 -6 -30 c-8 -39 -50 -80 -83 -82 -127 -7 -161 39 -161 217 0
162 32 216 127 218 67 1 97 -26 119 -110 2 -10 35 -13 119 -13 l115 0 0 43 c0
24 -7 67 -16 97 -20 69 -98 149 -169 174 -58 21 -230 30 -288 16z"/>
<path d="M39609 2096 c-60 -16 -130 -58 -165 -98 -73 -87 -107 -254 -86 -420
21 -161 80 -250 202 -307 49 -23 67 -26 170 -26 136 0 198 18 266 78 53 47 82
106 90 185 l7 63 -118 -3 -117 -3 -12 -34 c-15 -48 -55 -74 -110 -74 -98 0
-130 54 -130 218 0 164 32 218 130 218 60 0 96 -27 108 -81 l10 -42 119 0 120
0 -7 61 c-15 144 -86 227 -231 265 -62 17 -184 17 -246 0z"/>
<path d="M40627 2099 c-152 -36 -246 -153 -270 -338 -22 -182 21 -341 118
-429 75 -69 133 -87 275 -87 110 0 118 1 182 33 80 39 138 101 170 181 20 50
23 73 23 216 0 142 -3 166 -23 216 -41 103 -124 175 -234 205 -58 15 -182 17
-241 3z m193 -228 c46 -32 55 -65 55 -201 0 -103 -3 -131 -18 -153 -25 -38
-59 -58 -104 -60 -58 -2 -97 19 -124 66 -20 36 -23 56 -24 142 0 142 22 196
92 220 44 15 87 10 123 -14z"/>
<path d="M43183 2095 c-127 -35 -203 -124 -203 -236 0 -38 1 -39 38 -39 22 0
73 -3 114 -6 l75 -7 7 35 c9 49 37 71 99 76 64 5 103 -20 113 -74 3 -19 5 -37
3 -39 -3 -2 -49 -11 -104 -19 -225 -36 -281 -60 -353 -157 -22 -30 -33 -123
-23 -191 20 -122 96 -187 226 -196 88 -5 163 14 233 62 l51 34 6 -39 7 -39
115 0 115 0 -7 30 c-3 16 -10 163 -14 327 -7 282 -9 301 -30 346 -28 56 -78
100 -140 123 -65 23 -259 29 -328 9z m245 -522 c-3 -75 -4 -78 -36 -100 -100
-67 -217 -19 -198 80 9 47 39 67 125 83 119 21 112 26 109 -63z"/>
<path d="M28060 1675 l0 -415 125 0 125 0 0 415 0 415 -125 0 -125 0 0 -415z"/>
<path d="M36640 1777 c0 -369 4 -394 79 -468 56 -57 107 -73 206 -67 82 6 146
31 197 80 l37 35 6 -31 c14 -70 6 -66 127 -66 l111 0 -6 83 c-4 45 -7 232 -7
415 l0 332 -125 0 -125 0 0 -281 0 -280 -31 -29 c-63 -57 -170 -59 -207 -2
-15 23 -17 61 -21 309 l-3 283 -119 0 -119 0 0 -313z"/>
<path d="M42000 1979 l0 -112 170 5 c122 4 167 2 163 -6 -4 -6 -85 -106 -180
-223 l-173 -212 0 -86 0 -85 355 0 356 0 -3 108 -3 107 -187 0 c-125 0 -184 3
-179 10 4 5 85 105 179 222 l172 211 0 86 0 86 -335 0 -335 0 0 -111z"/>
<path d="M38800 1390 l0 -130 130 0 130 0 0 130 0 130 -130 0 -130 0 0 -130z"/>
<path d="M41430 1390 l0 -130 130 0 130 0 0 130 0 130 -130 0 -130 0 0 -130z"/>
</g>
</svg>
