<?xml version="1.0" standalone="no"?>
<!DOCTYPE svg PUBLIC "-//W3C//DTD SVG 20010904//EN"
 "http://www.w3.org/TR/2001/REC-SVG-20010904/DTD/svg10.dtd">
<svg version="1.0" xmlns="http://www.w3.org/2000/svg"
 width="500.000000pt" height="500.000000pt" viewBox="0 0 500.000000 500.000000"
 preserveAspectRatio="xMidYMid meet">

<g transform="translate(0.000000,500.000000) scale(0.100000,-0.100000)"
fill="#000000" stroke="none">
<path d="M0 2500 l0 -2500 2500 0 2500 0 0 2500 0 2500 -2500 0 -2500 0 0
-2500z m520 645 l0 -415 -85 0 -85 0 0 415 0 415 85 0 85 0 0 -415z m1850 335
l0 -80 -105 0 -105 0 0 -335 0 -335 -85 0 -85 0 0 335 0 335 -105 0 -105 0 0
80 0 80 295 0 295 0 0 -80z m1230 -85 l0 -165 125 0 125 0 0 165 0 165 80 0
80 0 0 -415 0 -415 -80 0 -80 0 0 165 0 165 -125 0 -125 0 0 -165 0 -165 -85
0 -85 0 0 415 0 415 85 0 85 0 0 -165z m-2786 -396 l86 -101 0 96 0 96 40 0
40 0 -2 -177 c-2 -107 -7 -177 -13 -179 -5 -1 -48 41 -95 93 l-85 96 -3 -91
-3 -92 -34 0 -35 0 0 180 c0 99 4 180 9 180 5 0 47 -45 95 -101z m719 87 c39
-16 82 -61 96 -99 29 -75 0 -175 -62 -221 -23 -17 -43 -21 -107 -21 -64 0 -84
4 -107 21 -86 64 -98 199 -25 278 51 54 136 72 205 42z m1235 8 c15 -4 22 -14
22 -29 0 -43 -9 -55 -36 -45 -27 11 -71 4 -95 -13 -45 -34 -53 -119 -15 -160
30 -33 68 -43 111 -30 33 10 33 10 40 -24 3 -19 4 -37 1 -40 -12 -12 -106 -15
-138 -4 -75 25 -129 122 -114 203 18 100 126 168 224 142z m-1538 -39 l0 -35
-50 0 -50 0 0 -35 c0 -35 0 -35 45 -35 45 0 45 0 45 -35 0 -35 0 -35 -45 -35
l-45 0 0 -70 0 -70 -40 0 -40 0 0 175 0 175 90 0 90 0 0 -35z m1260 0 l0 -35
-55 0 -55 0 0 -35 c0 -35 0 -35 45 -35 45 0 45 0 45 -35 0 -35 0 -35 -45 -35
-45 0 -45 0 -45 -35 l0 -35 55 0 55 0 0 -35 0 -35 -90 0 -90 0 0 175 0 175 90
0 90 0 0 -35z m440 -35 l0 -70 50 0 50 0 0 70 0 70 38 0 37 0 0 -175 0 -175
-37 0 -38 0 0 70 0 70 -50 0 -50 0 0 -70 0 -70 -35 0 -35 0 0 175 0 175 35 0
35 0 0 -70z m1280 -74 c0 -135 7 -156 55 -156 48 0 55 21 55 156 l0 124 35 0
35 0 0 -138 c0 -108 -3 -142 -16 -160 -34 -49 -116 -67 -174 -37 -50 26 -60
59 -60 205 l0 130 35 0 35 0 0 -124z m461 111 c39 -30 52 -105 25 -143 -13
-17 -12 -21 2 -37 35 -39 9 -127 -44 -147 -14 -6 -61 -10 -105 -10 l-79 0 0
175 0 175 93 0 c56 -1 98 -5 108 -13z m-1847 -1169 c8 -13 1 -45 -32 -139
l-42 -121 34 -39 c39 -42 51 -88 42 -152 l-7 -43 61 -49 c64 -51 77 -85 41
-105 -16 -8 -31 -1 -87 44 l-67 54 -45 -20 c-28 -13 -57 -18 -76 -15 -31 5
-35 1 -201 -219 -132 -174 -175 -224 -192 -224 -12 0 -27 8 -32 18 -12 23 -12
24 172 267 l149 195 -23 32 c-12 18 -23 34 -23 35 -1 1 -48 -10 -106 -23 -128
-29 -156 -30 -169 -5 -19 34 8 49 138 78 l124 28 13 45 c7 24 9 49 5 55 -4 5
-40 50 -80 99 -67 82 -71 90 -58 110 26 39 43 30 124 -69 63 -78 82 -95 98
-90 11 3 37 9 57 12 l37 6 37 111 c20 61 41 119 46 129 11 22 47 19 62 -5z"/>
<path d="M1415 3016 c-46 -20 -69 -76 -54 -130 21 -77 114 -103 170 -47 55 55
37 156 -33 180 -39 14 -46 13 -83 -3z"/>
<path d="M4542 2968 c3 -30 6 -33 39 -36 41 -3 64 16 54 48 -5 16 -15 20 -51
20 -45 0 -45 0 -42 -32z"/>
<path d="M4540 2824 c0 -35 0 -35 41 -32 45 3 67 24 56 52 -5 11 -19 16 -52
16 -45 0 -45 0 -45 -36z"/>
<path d="M2595 1546 c-48 -48 -40 -122 16 -151 41 -22 74 -18 108 11 42 35 44
98 5 138 -36 35 -95 36 -129 2z"/>
</g>
</svg>
