<?xml version="1.0" standalone="no"?>
<!DOCTYPE svg PUBLIC "-//W3C//DTD SVG 20010904//EN"
 "http://www.w3.org/TR/2001/REC-SVG-20010904/DTD/svg10.dtd">
<svg version="1.0" xmlns="http://www.w3.org/2000/svg"
 width="500.000000pt" height="500.000000pt" viewBox="0 0 500.000000 500.000000"
 preserveAspectRatio="xMidYMid meet">

<g transform="translate(0.000000,500.000000) scale(0.100000,-0.100000)"
fill="#000000" stroke="none">
<path d="M350 3145 l0 -415 85 0 85 0 0 415 0 415 -85 0 -85 0 0 -415z"/>
<path d="M1780 3480 l0 -80 68 0 c37 0 84 -3 105 -6 l37 -7 0 -328 0 -329 85
0 85 0 0 329 0 328 38 7 c20 3 67 6 105 6 l67 0 0 80 0 80 -295 0 -295 0 0
-80z"/>
<path d="M3430 3145 l0 -415 85 0 85 0 0 165 0 165 119 0 119 0 7 -165 7 -165
78 0 77 0 5 164 c2 90 2 277 0 415 l-5 251 -78 0 -79 0 0 -104 c0 -56 -3 -131
-6 -165 l-7 -61 -118 0 -119 0 0 165 0 165 -85 0 -85 0 0 -415z"/>
<path d="M2323 3104 c-10 -4 -13 -50 -13 -180 l0 -174 90 0 90 0 0 35 0 35
-55 0 -55 0 0 35 c0 35 0 35 45 35 45 0 45 0 45 34 0 34 -1 35 -42 38 -40 3
-43 5 -46 36 l-3 32 55 0 56 0 0 35 c0 34 -1 35 -42 35 -24 0 -59 2 -78 5 -19
2 -41 2 -47 -1z"/>
<path d="M2643 3091 c-75 -35 -119 -136 -93 -215 26 -81 90 -126 177 -126 61
0 75 10 71 46 -3 28 -5 29 -60 29 -48 0 -62 4 -83 26 -30 29 -41 82 -26 121
15 40 54 61 111 59 l50 -1 0 34 c0 26 -5 35 -22 40 -40 10 -82 6 -125 -13z"/>
<path d="M708 3013 c-2 -49 -2 -130 0 -180 l4 -93 34 0 33 0 3 91 3 91 84 -94
c47 -51 90 -94 98 -96 10 -3 13 32 13 177 l0 181 -40 0 -39 0 -3 -91 -3 -92
-83 97 c-46 53 -87 96 -92 96 -4 0 -10 -39 -12 -87z"/>
<path d="M1385 3086 c-70 -35 -105 -88 -105 -163 0 -84 29 -136 95 -171 39
-20 133 -19 173 2 114 59 124 243 16 315 -44 31 -134 39 -179 17z m136 -79
c45 -35 53 -119 15 -164 -21 -24 -32 -28 -76 -28 -44 0 -55 4 -76 28 -38 45
-30 129 15 164 9 7 36 12 61 12 25 0 52 -5 61 -12z"/>
<path d="M2860 2925 l0 -175 35 0 35 0 0 70 0 70 50 0 50 0 0 -70 0 -70 40 0
40 0 0 175 0 175 -40 0 -40 0 0 -70 0 -70 -50 0 -50 0 0 70 0 70 -35 0 -35 0
0 -175z"/>
<path d="M1050 2915 l0 -175 40 0 40 0 0 70 0 70 45 0 c45 0 45 0 45 35 0 35
0 35 -45 35 -45 0 -45 0 -45 35 l0 35 50 0 50 0 0 35 0 35 -90 0 -90 0 0 -175z"/>
<path d="M4140 2932 l0 -144 34 -34 c31 -31 40 -34 91 -34 51 0 60 3 90 33 40
40 51 103 40 232 l-7 85 -34 0 -34 0 0 -124 c0 -134 -7 -156 -54 -156 -47 0
-56 26 -56 157 l0 121 -35 4 -35 4 0 -144z"/>
<path d="M4477 3073 c-4 -3 -7 -84 -7 -180 l0 -173 91 0 c86 0 92 1 119 29 39
38 47 75 26 118 -12 25 -13 39 -6 53 15 28 12 88 -6 115 -9 14 -32 29 -53 35
-40 11 -154 14 -164 3z m152 -87 c21 -25 2 -46 -40 -46 -37 0 -39 2 -39 30 0
27 3 30 34 30 18 0 39 -6 45 -14z m5 -149 c14 -23 -15 -47 -56 -47 -25 0 -28
3 -28 36 0 34 1 35 36 32 22 -2 41 -10 48 -21z"/>
<path d="M2025 2291 c-101 -46 -156 -125 -163 -236 -4 -62 -1 -81 20 -126 80
-176 297 -224 435 -96 60 55 85 107 91 188 4 56 1 75 -20 120 -34 74 -69 113
-130 143 -65 33 -171 36 -233 7z m170 -62 c25 -7 56 -27 81 -54 130 -134 31
-347 -156 -333 -166 12 -246 201 -137 325 56 64 128 85 212 62z"/>
<path d="M2814 2166 c-49 -22 -74 -61 -74 -118 0 -43 5 -55 33 -83 41 -41 90
-52 140 -31 99 41 100 191 2 232 -42 17 -61 17 -101 0z m92 -91 c15 -23 15
-27 0 -50 -19 -29 -51 -32 -78 -8 -22 20 -23 41 -1 65 23 26 59 23 79 -7z"/>
<path d="M2773 1904 c-6 -3 -30 -61 -53 -128 l-41 -123 -37 -6 c-20 -3 -46 -9
-57 -12 -16 -5 -35 12 -98 90 -81 99 -98 108 -124 69 -13 -20 -9 -28 58 -110
40 -49 76 -94 80 -99 4 -6 2 -31 -5 -55 l-13 -45 -124 -28 c-130 -29 -156 -44
-138 -78 13 -25 41 -24 169 5 58 13 105 24 106 23 0 -1 11 -17 23 -35 l23 -32
-149 -195 c-184 -243 -184 -244 -172 -267 5 -10 20 -18 32 -18 17 0 60 50 192
224 166 220 170 224 201 219 19 -3 48 2 76 15 l45 20 67 -54 c56 -45 71 -52
87 -44 36 20 23 54 -41 105 l-61 49 7 43 c9 64 -3 110 -42 152 l-34 39 42 121
c33 94 40 126 32 139 -12 18 -31 24 -51 16z m-49 -360 c39 -40 37 -103 -5
-138 -54 -45 -123 -30 -149 33 -39 94 82 176 154 105z"/>
<path d="M1999 1473 c-79 -48 -78 -177 1 -218 90 -47 190 14 190 115 0 36 -6
48 -39 81 -33 34 -45 39 -82 39 -24 0 -56 -8 -70 -17z m102 -72 c19 -19 19
-51 0 -70 -26 -26 -46 -26 -71 -1 -25 25 -25 45 1 71 19 19 51 19 70 0z"/>
<path d="M3032 1284 c-116 -58 -163 -192 -108 -309 41 -89 114 -135 215 -135
86 0 155 38 199 110 28 47 32 63 32 122 0 83 -21 130 -82 182 -73 63 -168 74
-256 30z m160 -60 c38 -9 95 -75 104 -119 15 -80 -36 -162 -113 -185 -104 -31
-203 44 -203 152 0 51 25 104 61 131 29 21 85 37 109 31 8 -2 27 -6 42 -10z"/>
<path d="M2084 856 c-49 -22 -74 -61 -74 -118 0 -43 5 -55 33 -83 43 -43 79
-52 131 -34 107 37 114 192 11 235 -42 17 -61 17 -101 0z m92 -91 c15 -23 15
-27 0 -50 -19 -29 -51 -32 -78 -8 -22 20 -23 41 -1 65 23 26 59 23 79 -7z"/>
</g>
</svg>
